<svg xmlns="http://www.w3.org/2000/svg" aria-hidden="true" style="position:absolute;width:0;height:0;overflow:hidden">
  <defs>
    <symbol id="icon-up" viewBox="0 0 32 32">
      <path fill="#fff"
        d="M4.5 19.6 15.7 8.367c.133-.133.278-.228.433-.283s.322-.084.5-.084.344.028.5.084c.156.055.3.149.433.283L28.799 19.6c.311.311.467.7.467 1.167s-.167.867-.5 1.2c-.333.333-.722.5-1.167.5s-.833-.167-1.167-.5l-9.8-9.8-9.8 9.8c-.311.311-.694.467-1.149.467s-.851-.167-1.184-.5-.5-.722-.5-1.167c0-.444.167-.833.5-1.167z"
        style="fill:var(--color1, #fff)" />
    </symbol>
    <symbol id="icon-burger" viewBox="0 0 32 32">
		<path fill="none" stroke-linejoin="round" stroke-linecap="round" stroke-miterlimit="4" stroke-width="2.2857" stroke="#000" d="M22.667 13.333h-18.667"></path>
		<path fill="none" stroke-linejoin="round" stroke-linecap="round" stroke-miterlimit="4" stroke-width="2.2857" stroke="#000" d="M28 8h-24"></path>
		<path fill="none" stroke-linejoin="round" stroke-linecap="round" stroke-miterlimit="4" stroke-width="2.2857" stroke="#000" d="M28 18.667h-24"></path>
		<path fill="none" stroke-linejoin="round" stroke-linecap="round" stroke-miterlimit="4" stroke-width="2.2857" stroke="#000" d="M22.667 24h-18.667"></path>
    </symbol>
    <symbol id="icon-support-emblem" viewBox="0 0 20 32">
      <path fill="#fff"
        d="M9.005 30.888a8.64 8.64 0 0 1-3.414-5.351H0V2.42c2.991 1.443 5.153 4.599 5.388 7.876l.846 6.493-.407-.045c-.893 0-1.676.812-1.676 1.608 0 .752.595 1.383 1.378 1.548l1.018.226c1.676-3.051 2.631-6.042 2.631-8.973 0-2.645-.36-5.291-.423-7.996 0-1.202.486-2.3 1.253-3.156.783.857 1.253 1.954 1.253 3.156 0 2.705-.423 5.351-.423 7.996 0 2.931.955 5.922 2.631 8.973l1.018-.226c.783-.165 1.378-.812 1.378-1.548 0-.812-.783-1.608-1.676-1.608l-.423.06.846-6.493c.423-3.277 2.396-6.448 5.388-7.876v23.117h-5.576c-.423 2.179-1.613 4.148-3.414 5.351-.423.286-.783.631-1.018 1.097-.219-.466-.579-.812-.987-1.112zM2.647 17.556c.235-.857.893-1.608 1.738-2.074l-.658-5.351a8.288 8.288 0 0 0-2.036-4.374v11.784h.955v.015zm2.819 6.373c0-.812.125-1.548.298-2.3l-.783-.18c-1.143-.346-2.036-1.203-2.334-2.3h-.955v4.78h3.774zm3.712 0c0-.977-.783-1.834-1.801-1.954-.172.631-.298 1.263-.298 1.954h2.099zm0 1.623H7.314c.298 1.263.955 2.42 1.864 3.397v-3.397zm2.631-5.005c-.72-1.262-1.378-2.585-1.801-3.968-.423 1.383-1.081 2.706-1.801 3.968.72.165 1.316.631 1.801 1.157.486-.526 1.081-.992 1.801-1.157zm1.143 3.382c0-.691-.125-1.323-.297-1.954-1.018.12-1.801.977-1.801 1.954h2.099zm-.235 1.623h-1.864v3.397c.908-.992 1.566-2.134 1.864-3.397zm5.623-1.623v-4.78h-.955c-.298 1.097-1.206 1.954-2.334 2.3l-.783.18c.172.752.298 1.488.298 2.3h3.774zm0-6.373V5.757c-1.081 1.202-1.864 2.706-2.036 4.374l-.658 5.351c.846.466 1.504 1.203 1.739 2.074h.955z"
        style="fill:var(--color1, #fff)" />
    </symbol>
    <symbol id="icon-delete" viewBox="0 0 32 32">
      <path fill="none" stroke="#fff" stroke-linecap="round" stroke-linejoin="round" stroke-width="2.667"
        d="M12 4h8M4 8h24m-2.667 0-.935 14.026c-.14 2.104-.21 3.156-.665 3.954a4.007 4.007 0 0 1-1.731 1.62c-.826.4-1.881.4-3.99.4h-4.025c-2.109 0-3.163 0-3.99-.4a4.001 4.001 0 0 1-1.731-1.62c-.455-.798-.525-1.85-.665-3.954L6.666 8m6.667 6v6.667M18.667 14v6.667"
        style="stroke:var(--color1, #fff)" />
    </symbol>
    <symbol id="icon-shopping-list" viewBox="0 0 25 32">
      <path
        d="M22.815 8.592h-4.444V7.111a5.93 5.93 0 0 0-5.926-5.926 5.93 5.93 0 0 0-5.926 5.926v1.481H2.075a1.482 1.482 0 0 0-1.482 1.482V26.37a4.444 4.444 0 0 0 4.445 4.445h14.815a4.444 4.444 0 0 0 4.445-4.445V10.074a1.482 1.482 0 0 0-1.482-1.482zM9.481 7.111a2.962 2.962 0 0 1 5.058-2.095c.556.556.868 1.309.868 2.095v1.481H9.481V7.111zM21.333 26.37a1.478 1.478 0 0 1-1.481 1.481H5.037a1.482 1.482 0 0 1-1.482-1.481V11.555h2.963v1.481a1.482 1.482 0 1 0 2.964 0v-1.481h5.926v1.481a1.482 1.482 0 1 0 2.963 0v-1.481h2.963V26.37z" />
    </symbol>
    <symbol id="icon-support-scroll-up" viewBox="0 0 56 32">
      <path fill="#4f2ee8"
        d="M25.397 10.866A3.675 3.675 0 0 1 28 9.781a3.67 3.67 0 0 1 2.603 1.085l16.794 16.83A3.675 3.675 0 0 0 50 28.781a3.67 3.67 0 0 0 2.603-6.255l-16.83-16.83a10.998 10.998 0 0 0-15.546 0l-16.83 16.83a3.669 3.669 0 0 0-.791 3.975A3.659 3.659 0 0 0 4.59 28.5a3.651 3.651 0 0 0 2.82 0 3.659 3.659 0 0 0 1.193-.803l16.793-16.83z"
        style="fill:var(--color2, #4f2ee8)" />
    </symbol>
    <symbol id="icon-support-scroll" viewBox="0 0 56 32">
      <path fill="#4f2ee8"
        d="M25.397 21.134A3.675 3.675 0 0 0 28 22.219a3.67 3.67 0 0 0 2.603-1.085l16.794-16.83A3.675 3.675 0 0 1 50 3.219a3.67 3.67 0 0 1 2.603 6.255l-16.83 16.83a11 11 0 0 1-15.546 0L3.397 9.474a3.669 3.669 0 0 1-.791-3.975A3.659 3.659 0 0 1 4.59 3.5a3.651 3.651 0 0 1 2.82 0c.447.186.852.459 1.193.803l16.793 16.83z"
        style="fill:var(--color2, #4f2ee8)" />
    </symbol>
    <symbol id="icon-checkbox" viewBox="0 0 64 32">
      <path d="M0 16C0 7.163 7.163 0 16 0h32c8.836 0 16 7.163 16 16s-7.164 16-16 16H16C7.163 32 0 24.836 0 16z" />
    </symbol>
    <symbol id="icon-switcher" viewBox="0 0 32 32">
      <path
        d="M16 30.857c8.206 0 14.857-6.652 14.857-14.857S24.205 1.143 16 1.143C7.795 1.143 1.143 7.795 1.143 16S7.795 30.857 16 30.857z" />
    </symbol>
    <symbol id="icon-logo" viewBox="0 0 24 24">
      <path d="M0 0L12.2571 12.1286L24 24V0H0Z" fill="#F6F6F6"/>
      <path d="M3.34277 3.17145L12.2999 12.0429L20.7428 20.6572H3.34277V3.17145Z" fill="#F6F6F6"/>
      <path d="M20.7999 20.7137L11.8428 11.8423L3.3999 3.22797H20.7999V20.7137Z" fill="#4F2EE8"/>
      <path d="M6.94287 6.77142L11.7 11.5286L17.1429 16.9714H6.94287V6.77142Z" fill="#4F2EE8"/>
      <path d="M6.94287 6.77142L11.7 11.5286L17.1429 16.9714V6.77142H6.94287Z" fill="#F6F6F6"/>
    </symbol>
    <symbol id="icon-arrow" viewBox="0 0 16 12">
      <path d="M1.33325 6H14.6666M14.6666 6L9.66658 1M14.6666 6L9.66658 11" stroke="#EAC645" stroke-width="2" stroke-linecap="round" stroke-linejoin="round"/>
    </symbol>
	<symbol id="icon-x-close" viewBox="0 0 32 32">
		<path fill="none" stroke-linejoin="round" stroke-linecap="round" stroke-miterlimit="4" stroke-width="3.4286" stroke="#000" d="M24 8l-16 16M8 8l16 16"></path>
	</symbol>
	<symbol id="icon-burger" viewBox="0 0 32 32">
		<path stroke-linejoin="round" stroke-linecap="round" stroke-miterlimit="4" stroke-width="2.2857" d="M22.667 13.333h-18.667"></path>
		<path stroke-linejoin="round" stroke-linecap="round" stroke-miterlimit="4" stroke-width="2.2857" d="M28 8h-24"></path>
		<path stroke-linejoin="round" stroke-linecap="round" stroke-miterlimit="4" stroke-width="2.2857" d="M28 18.667h-24"></path>
		<path stroke-linejoin="round" stroke-linecap="round" stroke-miterlimit="4" stroke-width="2.2857" d="M22.667 24h-18.667"></path>
	</symbol>
</svg>